<svg id="visual" viewBox="0 0 900 600" width="900" height="600" xmlns="http://www.w3.org/2000/svg" xmlns:xlink="http://www.w3.org/1999/xlink" version="1.1"><rect x="0" y="0" width="900" height="600" fill="#FFFFFF"></rect><path d="M0 446L15 440.5C30 435 60 424 90 408.5C120 393 150 373 180 379.2C210 385.3 240 417.7 270 418C300 418.3 330 386.7 360 393C390 399.3 420 443.7 450 461.7C480 479.7 510 471.3 540 465.5C570 459.7 600 456.3 630 458.2C660 460 690 467 720 470.2C750 473.3 780 472.7 810 458.3C840 444 870 416 885 402L900 388L900 601L885 601C870 601 840 601 810 601C780 601 750 601 720 601C690 601 660 601 630 601C600 601 570 601 540 601C510 601 480 601 450 601C420 601 390 601 360 601C330 601 300 601 270 601C240 601 210 601 180 601C150 601 120 601 90 601C60 601 30 601 15 601L0 601Z" fill="#c29b7a" stroke-linecap="round" stroke-linejoin="miter"></path></svg>